<svg xmlns="http://www.w3.org/2000/svg" version="1.1" xmlns:xlink="http://www.w3.org/1999/xlink" xmlns:svgjs="http://svgjs.dev/svgjs" width="1440" height="560" preserveAspectRatio="none" viewBox="0 0 1440 560"><g mask="url(&quot;#SvgjsMask1035&quot;)" fill="none"><rect width="1440" height="560" x="0" y="0" fill="rgba(83, 161, 116, 1)"></rect><path d="M0,464.08C124.05,465.128,236.419,590.224,354.111,551.008C472.442,511.579,536.868,382.29,587.521,268.312C637.828,155.113,665.203,29.256,639.871,-92C615.291,-209.657,532.058,-302.099,450.003,-389.93C370.593,-474.929,287.431,-567.326,173.569,-591.123C62.463,-614.344,-45.406,-556.228,-151.4,-515.62C-249.379,-478.082,-347.605,-439.894,-419.827,-363.782C-494.123,-285.485,-534.884,-185.059,-563.758,-81.056C-596.064,35.307,-635.419,158.085,-596.447,272.388C-556.115,390.681,-469.271,506.814,-350.285,545.055C-233.833,582.481,-122.314,463.046,0,464.08" fill="#4c946b"></path><path d="M1440 952.749C1515.16 966.4069999999999 1593.955 940.855 1658.089 899.3530000000001 1722.117 857.9200000000001 1772.3310000000001 795.053 1795.818 722.496 1818.061 653.783 1786.407 582.729 1783.9470000000001 510.548 1781.103 427.10900000000004 1821.305 337.873 1780.231 265.188 1737.716 189.95299999999997 1651.811 144.313 1567.163 126.923 1485.42 110.13 1404.004 142.128 1326.038 171.88 1253.297 199.63799999999998 1180.414 232.135 1131.893 293.024 1084.37 352.65999999999997 1072.101 430.071 1060.259 505.402 1048.2730000000001 581.647 1021.163 667.283 1062.847 732.24 1104.3980000000001 796.99 1201.105 789.5509999999999 1267.521 828.3820000000001 1329.975 864.8969999999999 1368.821 939.815 1440 952.749" fill="#5cab7e"></path></g><defs><mask id="SvgjsMask1035"><rect width="1440" height="560" fill="#ffffff"></rect></mask></defs></svg>